<svg id="design" xmlns="http://www.w3.org/2000/svg" xmlns:xlink="http://www.w3.org/1999/xlink" viewBox="0 0 1018 280"><defs><style>.cls-1,.cls-16,.cls-18,.cls-3,.cls-30,.cls-46{fill:none;}.cls-2{fill:#f4f4f4;}.cls-3{stroke:#e5f3fd;}.cls-3,.cls-30,.cls-46{stroke-miterlimit:10;}.cls-16,.cls-18,.cls-3{stroke-width:3.38px;}.cls-4{fill:#70bef2;}.cls-5{fill:#c9e8ff;}.cls-6{fill:#fafafa;}.cls-7{fill:#ed8b00;}.cls-8{fill:#ffb655;}.cls-9{fill:#eaeaea;}.cls-10{fill:#dadfe3;}.cls-11{fill:#fff;}.cls-12{fill:#e5f3fd;}.cls-13{fill:#02355e;}.cls-14{fill:#005eb8;}.cls-15,.cls-16{opacity:0.9;}.cls-16{stroke:#eaeaea;}.cls-16,.cls-18,.cls-30{stroke-linecap:round;}.cls-16,.cls-18{stroke-linejoin:round;}.cls-17{fill:#ffb285;}.cls-18{stroke:#fafafa;}.cls-19{fill:#54a4f3;}.cls-20{fill:#1b71de;}.cls-21{fill:#21333a;}.cls-22{fill:#d93c38;}.cls-23{opacity:0.8;}.cls-24{fill:#fad3ad;}.cls-25{fill:#dd8851;}.cls-26{fill:#d9673e;}.cls-27{fill:#2e0e00;}.cls-28{fill:#eda87e;}.cls-29{fill:#134eb2;}.cls-30{stroke:#ffb655;stroke-width:4px;stroke-dasharray:0.1 8;}.cls-31{clip-path:url(#clip-path);}.cls-32{fill:#ac6046;}.cls-33{fill:#873a26;}.cls-34{fill:#231915;}.cls-35{clip-path:url(#clip-path-2);}.cls-36{fill:#c57b4a;}.cls-37{fill:#6a3a05;}.cls-38{fill:#a22208;}.cls-39{fill:#efae7c;}.cls-40{fill:#fdf2e9;}.cls-41{fill:#bf6034;}.cls-42{fill:#f8d5c2;}.cls-43{fill:#f2a587;}.cls-44{fill:#ef847d;}.cls-45{fill:#f2a78d;}.cls-46{stroke:#ed8b00;stroke-width:2px;}</style><clipPath id="clip-path"><path id="SVGID" class="cls-1" d="M202.35,83.47a55,55,0,1,0,55-55A55,55,0,0,0,202.35,83.47Z"/></clipPath><clipPath id="clip-path-2"><path class="cls-1" d="M307.35,230a50,50,0,1,1-50-50A50,50,0,0,1,307.35,230Z"/></clipPath></defs><path class="cls-2" d="M458.05,107.78a84.23,84.23,0,0,0-16.61,1.66,68.5,68.5,0,0,0-95.95-48.7,91.44,91.44,0,1,0-171.91,62.41,76.22,76.22,0,0,0,2.29,152.41H458.05a83.89,83.89,0,1,0,0-167.78Z"/><path class="cls-3" d="M565.29,189.2s-6.45,65.22,18.73,74.27"/><path class="cls-4" d="M672.42,272.55h-35C651,234,644.14,180.8,644.14,180.8h56s-3,54.47,7.32,91.75Z"/><path class="cls-5" d="M820.09,187.91a3.2,3.2,0,0,1-3.16,3.23h-289a3.19,3.19,0,0,1-3.16-3.23V3.23A3.19,3.19,0,0,1,527.92,0h289a3.2,3.2,0,0,1,3.16,3.23Z"/><rect class="cls-6" x="524.76" y="14.58" width="295.33" height="162.32"/><rect class="cls-7" x="524.76" y="14.58" width="295.33" height="17.44"/><rect class="cls-8" x="524.76" y="32.01" width="71.68" height="144.88"/><rect class="cls-9" x="609.17" y="46.15" width="57.54" height="57.54" rx="5"/><rect class="cls-10" x="679.42" y="46.15" width="57.54" height="57.54" rx="5"/><rect class="cls-9" x="750.08" y="46.15" width="57.54" height="57.54" rx="5"/><path class="cls-10" d="M614.17,142.65h47.54a5,5,0,0,1,5,5v29.24a0,0,0,0,1,0,0H609.17a0,0,0,0,1,0,0V147.65A5,5,0,0,1,614.17,142.65Z"/><path class="cls-9" d="M684.42,142.65H732a5,5,0,0,1,5,5v29.24a0,0,0,0,1,0,0H679.42a0,0,0,0,1,0,0V147.65A5,5,0,0,1,684.42,142.65Z"/><path class="cls-10" d="M755.08,142.65h47.54a5,5,0,0,1,5,5v29.24a0,0,0,0,1,0,0H750.08a0,0,0,0,1,0,0V147.65A5,5,0,0,1,755.08,142.65Z"/><rect class="cls-11" x="609.17" y="112.12" width="57.54" height="5.09" rx="1.5"/><rect class="cls-11" x="679.42" y="112.12" width="57.54" height="5.09" rx="1.5"/><rect class="cls-11" x="750.14" y="112.12" width="57.54" height="5.09" rx="1.5"/><rect class="cls-11" x="609.17" y="120.82" width="36.32" height="5.09" rx="1.5"/><rect class="cls-11" x="679.42" y="120.82" width="36.32" height="5.09" rx="1.5"/><rect class="cls-11" x="750.14" y="120.82" width="36.32" height="5.09" rx="1.5"/><rect class="cls-7" x="531.83" y="79.14" width="57.54" height="5.09" rx="1.5"/><rect class="cls-7" x="531.83" y="87.84" width="36.32" height="5.09" rx="1.5"/><rect class="cls-7" x="531.83" y="46.15" width="57.54" height="5.09" rx="1.5"/><rect class="cls-7" x="531.83" y="54.86" width="36.32" height="5.09" rx="1.5"/><rect class="cls-7" x="531.83" y="112.12" width="57.54" height="5.09" rx="1.5"/><rect class="cls-7" x="531.83" y="120.82" width="36.32" height="5.09" rx="1.5"/><rect class="cls-7" x="531.83" y="145.1" width="57.54" height="5.09" rx="1.5"/><rect class="cls-7" x="531.83" y="153.81" width="36.32" height="5.09" rx="1.5"/><circle class="cls-8" cx="536.76" cy="23.29" r="2.5"/><circle class="cls-8" cx="545.11" cy="23.29" r="2.5"/><circle class="cls-8" cx="553" cy="23.29" r="2.5"/><path class="cls-4" d="M576,270.88s0-7.11,11.45-12A30.26,30.26,0,0,1,615,261.05c4.91,3.27,6,9.83,6,9.83Z"/><path class="cls-5" d="M576,270.88s1.63-11.56,16.54-11.74,16.18,11.74,16.18,11.74Z"/><rect class="cls-12" x="508.84" y="270.18" width="448.16" height="9.82"/><path class="cls-13" d="M945.35,115.49l-1.69-3.82s-8.87,19-15.14,58c-5.7,35.51-3.16,62.24-3.16,62.24h3.94a472.81,472.81,0,0,1,2.53-58.09C934.31,152,937.2,138.46,945.35,115.49Z"/><path class="cls-5" d="M956.06,92.5s3.93-7.36,19.62-5.44c7.46.92,15.4,12.75,17.63,15.87s9.88,11.4,13.47,17.14,8.47,19.82,9.89,29.48,2.26,18-.45,24.68c0,0-1.8,4.57-4.5-6.47-1-4.14-3.9-8.41-6.08-11.23s-13.46-12.49-17.9-15.05c-5.72-3.3-13.6-7.66-19.62-10.33-11.63-5.16-16-9.27-23.06-14.53s-9.37-12.26-7-20.07S945.27,87,956.06,92.5Z"/><path class="cls-12" d="M1015,168.48c-1-4-2-8-3.18-12s-2.39-7.9-3.9-11.73a86.09,86.09,0,0,0-12.08-21.35c-4.94-6.59-10.08-13.11-16.19-18.56a54.49,54.49,0,0,0-10-7.14A47.8,47.8,0,0,0,958.25,93s0,0,0-.06,0,0,.06,0a50.45,50.45,0,0,1,21.88,11.31c6.31,5.42,11.47,12,16.5,18.55a84.38,84.38,0,0,1,12,21.68,163,163,0,0,1,6.44,24,0,0,0,0,1,0,.06S1015,168.51,1015,168.48Z"/><path class="cls-14" d="M933.29,126.82l1.86-6.49s6.11,24.93,6,59c0,24.37-.78,52.81-1.16,55a.91.91,0,0,1-1.16.7l-2.86-.78s1.13-33,1.18-54.46C937.23,160.87,938.25,147.16,933.29,126.82Z"/><path class="cls-5" d="M919.92,111.32c0,.05.75-7.23-2.56-8-10.15-2.37-18.93,4.77-23,13.38s-5.65,23.65-6.34,30c-1.8,16.35,2.7,40.14,5.94,41.64,1.88.51,2.14-5.91,2.67-7.77,3.86-13.42,11.57-22.25,20.66-31.69,6.66-6.91,14.35-13.38,18-22.36,3.24-7.91.43-14.91-5-17.61C927,107.31,922.71,106.86,919.92,111.32Z"/><path class="cls-4" d="M893,181.07c.19-3.11.51-6.22.9-9.32s1-6.17,1.54-9.24a183.72,183.72,0,0,1,4.64-18.16A93,93,0,0,1,907.36,127a70.56,70.56,0,0,1,5.19-7.85,69.2,69.2,0,0,1,6.29-7,.06.06,0,0,1,.08,0,0,0,0,0,1,0,.07,69.74,69.74,0,0,0-10.86,15.11,98,98,0,0,0-7,17.26c-1.89,5.93-3.48,12-4.83,18a182.1,182.1,0,0,0-3.11,18.4.06.06,0,1,1-.11,0Z"/><path class="cls-12" d="M945.61,143.26s6.43-5.77,18-1.68c9,3.17,8.68,9.44,10.76,15.39.91,2.61,2.55,9.16,4.16,13.76s3.59,12.12,2.81,19-1.78,20.52-4.72,19.39c-1.68-.65-1.73-6.21-3.37-9.38s-3.93-5.64-6.37-9.05-5.72-5.8-8.84-8.12a41.31,41.31,0,0,0-12.5-6.49c-5.2-1.61-11.92-6.9-14.89-12.66-2.82-5.45-3.17-12,.15-17S941.18,140.72,945.61,143.26Z"/><g class="cls-15"><path class="cls-11" d="M977.11,200.59a65.53,65.53,0,0,0-1.49-8.12c-.59-2.69-1.31-5.34-2.11-8a127.21,127.21,0,0,0-5.71-15.42,79.67,79.67,0,0,0-3.53-7.39,60.27,60.27,0,0,0-4.53-6.79,43,43,0,0,0-5.55-6,30.75,30.75,0,0,0-6.7-4.74.05.05,0,1,1,0-.1,36.63,36.63,0,0,1,12.83,10.32,57.13,57.13,0,0,1,8.37,14.27,116.93,116.93,0,0,1,5.55,15.62,82.71,82.71,0,0,1,2.93,16.3,0,0,0,0,1-.05,0S977.11,200.62,977.11,200.59Z"/></g><polygon class="cls-6" points="976.69 211.5 907.29 211.5 909.42 226.22 913 226.59 918.59 280 967.13 280 971.43 227.19 974.64 226.95 976.69 211.5"/><line class="cls-16" x1="925.44" y1="227.55" x2="965.98" y2="227.55"/><path class="cls-17" d="M701.19,114.5a19.66,19.66,0,0,0-6.67,5.16c-3.47,4.45-6.84,10.89-11,17.66-6.46,10.54-21,41.75-25,52.52s-4.74,23.47,3.23,22.18c20.78-3.37,24.54-34.23,24.54-34.23s7.29-24.34,10.12-31.22c3-7.32,4.1-8.2,6.89-11.62,2.3-2.84-.24-3.58,1.15-6.11s3-3.75,2.87-6c-.06-.89-.75-.82-2.73,1.23a21.86,21.86,0,0,1-2.42,2.32Z"/><path class="cls-13" d="M661.37,181.88c-2.58.86-5,6-5.6,7.53-3.95,10.77-15.77,37.13-14.26,58.13s16.74,23,27,22,34.2-22.88,49.73-42.41a315.69,315.69,0,0,1,31.86-34s10.22-1.57,9.67-32.66-8.81-53.88-8.81-53.88S732.19,118.14,718,133.14s-39.19,53.69-39.19,53.69S667.61,181,661.37,181.88Z"/><path class="cls-18" d="M678.16,187.9a274.9,274.9,0,0,0-21.52,40.51"/><path class="cls-19" d="M739.34,109.7c-1.78-1.55-6.3-1.51-7.11-1.17l0-2.51s-.52-6.77-18.16-5.91c-14.83.72-14.66,6.74-14.66,6.74l.41,22.27.2,11.09c9.72,5.54,20.38,4.78,31.65,0l.07-4.3c7.9,1.87,9.82-3.46,11.35-12.52S741.59,111.67,739.34,109.7ZM739.5,122c-.57,9.88-6.19,8.27-7.62,7.69l.26-15.8C734.34,112.65,740.11,111.45,739.5,122Z"/><path class="cls-20" d="M729.66,107.14c.32,7.09-23.63,5.55-26,2.56C696.59,100.63,729.36,100.63,729.66,107.14Z"/><path class="cls-17" d="M708.51,128.06c3.88-1.51,5.91-2.1,5.56-.38s-3,5.11-7.92,7.91C700.41,138.84,696,141,696,141l-3.66-14.64,3.87-5s0,6.68,4.52,8.19C703.84,130.59,705,129.41,708.51,128.06Z"/><path class="cls-13" d="M877.28,280c7.63-49.91.37-84.38-2.36-93.39s-5.17-28.76-6-42.62c-.7-11.46-10-31.22-31.83-42.89-11.12-5.94-30.38-8.35-30.38-8.35-8.32,11.64-29.28,2.16-29.28,2.16s-12.27,2.58-20,6.45c-3.41,1.71-24.54,10.66-46.5,40.37-10.86,14.7,17.65,48.76,17.22,65.55-.85,33.18,1.73,64.15,3.88,72.72Z"/><path class="cls-20" d="M749.38,279.6s6.28-62.85,16.18-90.4c9.45-26.29,27.7-46.89,74.55-51.06s71.5,25.91,79.22,47.49,13.5,55,17.64,94.37Z"/><path class="cls-17" d="M745.54,34.2s-3.34,3.07-5.27,5c-1.63,1.63,2.1,4.69,2.1,4.69S741.88,62,747.05,71c5.35,9.37,15.82,10.66,23.07,8.26l4.09,19.09s4.7,8.17,20.2,6.88c10.16-.85,17.22-5.17,18.66-9.87l-7.9-30.6s11-14,7.75-29.71S806.12,5.78,777.75,7,745.54,34.2,745.54,34.2Z"/><path class="cls-17" d="M770.3,79.19a32.68,32.68,0,0,0,8.07-4.47c-.43,2.8-3.55,10.07-6.35,12.5Z"/><path class="cls-21" d="M789.21,5c-14-2.09-27,3.45-27.58,4.63-1.16,2.37.85,11.46,4.69,22.09,2.77,7.67,6.13,14.57,6.13,14.57.57-1.47,7.33-4.89,10.33.87a7,7,0,0,1-6,10.11s5.91,12.26,19.37,12.27S822.36,51,816.37,28.39C813.37,17.08,806.52,7.55,789.21,5Z"/><path class="cls-21" d="M811,26.86s-1.64-7.29,8.82-13.76,22.21-1.74,25.62,5.16,3.52,16.24-4.94,21.41S810.81,43.61,811,26.86Z"/><path class="cls-17" d="M763.91,43.69c0,1.67-2.32,3-5.18,3s-5.19-1.36-5.19-3,2.32-3,5.19-3S763.91,42,763.91,43.69Z"/><path d="M753.53,30.6a9.35,9.35,0,0,0-.47,3,2.4,2.4,0,0,0,.4,1.38,1.64,1.64,0,0,0,1.28.52,9.85,9.85,0,0,0,5.64-1.81,0,0,0,0,1,.07,0s0,0,0,.06v0a7.1,7.1,0,0,1-5.79,2.86,3.78,3.78,0,0,1-1-.23,2.09,2.09,0,0,1-1-.8,2.81,2.81,0,0,1-.46-2,5.81,5.81,0,0,1,1.26-3h0a.05.05,0,0,1,.08,0A0,0,0,0,1,753.53,30.6Z"/><path class="cls-22" d="M746.25,32.08a10.52,10.52,0,0,1-1.74,4,12.57,12.57,0,0,1-3.13,3,7.09,7.09,0,0,1-1,.58l-.18.1a.52.52,0,0,0,.16-.22c.06-.16,0-.18,0-.13a4,4,0,0,0,.51,1.55l2,3.64-.1.09a26.2,26.2,0,0,1-2.63-3.22,5.31,5.31,0,0,1-.91-1.9,1,1,0,0,1,.06-.57,1.17,1.17,0,0,1,.42-.39c.28-.2.57-.38.84-.6A22.56,22.56,0,0,0,746.13,32Z"/><path class="cls-22" d="M742.9,51.58a5.24,5.24,0,0,0,4.19,1.13A3.67,3.67,0,0,0,749,51.64a7.49,7.49,0,0,0,1.29-1.85l.12.06a5.89,5.89,0,0,1-.08,1.32,6.59,6.59,0,0,1-.56,1.21,3.71,3.71,0,0,1-2.36,1.68,4,4,0,0,1-2.83-.43,3.81,3.81,0,0,1-1.75-1.94Z"/><g class="cls-23"><path class="cls-11" d="M716.76,97.12s-4.51-.26-7.83-6.2,1.6-8,.63-11.3c-2.17-7.3-10.71-2.31-11.6-9.66s13.54-6.67,16.3,1.92c3.18,9.89-3,13.22-2.24,18.91A7.76,7.76,0,0,0,716.76,97.12Z"/><path class="cls-11" d="M720.47,95.6s-5.9-1.83-4.65-6.21c1-3.37,4.29-3.64,5.36-6.73,1.28-3.72-.73-5.46,1-6.75,3-2.22,6.14,2.5,4.21,6.87S714.08,90.1,720.47,95.6Z"/></g><path class="cls-4" d="M363.91,17.38a1.84,1.84,0,0,0-1.61.84,4.06,4.06,0,0,0-.58,2.33c0,2.07.78,3.1,2.35,3.1a5,5,0,0,0,1.38-.2,12.72,12.72,0,0,0,1.34-.48v2.45a7.56,7.56,0,0,1-3,.59,4.81,4.81,0,0,1-3.71-1.4,5.83,5.83,0,0,1-1.3-4.07,6.44,6.44,0,0,1,.63-2.92,4.51,4.51,0,0,1,1.8-1.94,5.49,5.49,0,0,1,2.77-.68,7.57,7.57,0,0,1,3.32.76L366.37,18a8.39,8.39,0,0,0-1.19-.47A4,4,0,0,0,363.91,17.38Z"/><path class="cls-4" d="M378,15.16V21.6a4.35,4.35,0,0,1-1.19,3.26A4.74,4.74,0,0,1,373.36,26,4.68,4.68,0,0,1,370,24.89a4.25,4.25,0,0,1-1.17-3.22V15.16h2.9v6.28a2.53,2.53,0,0,0,.43,1.65,1.53,1.53,0,0,0,1.25.51,1.55,1.55,0,0,0,1.29-.51,2.75,2.75,0,0,0,.4-1.66V15.16Z"/><path class="cls-4" d="M387.23,22.61a3.12,3.12,0,0,1-.51,1.77,3.21,3.21,0,0,1-1.45,1.2A5.36,5.36,0,0,1,383,26a9,9,0,0,1-1.79-.15,6.45,6.45,0,0,1-1.51-.52V22.76a8.73,8.73,0,0,0,1.72.66,6.37,6.37,0,0,0,1.64.24,1.61,1.61,0,0,0,1-.22.69.69,0,0,0,.3-.58.58.58,0,0,0-.13-.38,1.64,1.64,0,0,0-.38-.34c-.18-.11-.66-.34-1.43-.68a6.81,6.81,0,0,1-1.57-.93,2.82,2.82,0,0,1-.78-1,3.56,3.56,0,0,1-.25-1.37,2.74,2.74,0,0,1,1.08-2.31,4.75,4.75,0,0,1,3-.83,8.33,8.33,0,0,1,3.39.77L386.34,18a6.39,6.39,0,0,0-2.59-.69,1.29,1.29,0,0,0-.82.2.59.59,0,0,0-.26.49.71.71,0,0,0,.33.56,12.3,12.3,0,0,0,1.77.91,4.82,4.82,0,0,1,1.92,1.34A2.87,2.87,0,0,1,387.23,22.61Z"/><path class="cls-4" d="M393.61,25.86h-2.9V17.52H388.1V15.16h8.12v2.36h-2.61Z"/><path class="cls-4" d="M407.77,20.5a5.8,5.8,0,0,1-1.33,4.11,6,6,0,0,1-7.75,0,5.79,5.79,0,0,1-1.34-4.12,5.71,5.71,0,0,1,1.34-4.08,6.06,6.06,0,0,1,7.76,0A5.77,5.77,0,0,1,407.77,20.5Zm-7.37,0c0,2.07.72,3.1,2.16,3.1a1.87,1.87,0,0,0,1.63-.75,4.19,4.19,0,0,0,.53-2.35,4.15,4.15,0,0,0-.54-2.37,1.84,1.84,0,0,0-1.61-.77C401.12,17.36,400.4,18.41,400.4,20.5Z"/><path class="cls-4" d="M414.36,25.86l-2.19-7.71h-.06q.15,2,.15,3.06v4.65H409.7V15.16h3.85l2.24,7.6h0l2.19-7.6h3.86v10.7h-2.65V21.17c0-.24,0-.51,0-.81s0-1,.1-2.19h-.07l-2.16,7.69Z"/><path class="cls-4" d="M435.1,22.61a3.12,3.12,0,0,1-.51,1.77,3.21,3.21,0,0,1-1.45,1.2,5.36,5.36,0,0,1-2.24.43,9,9,0,0,1-1.79-.15,6.61,6.61,0,0,1-1.51-.52V22.76a9,9,0,0,0,1.72.66,6.37,6.37,0,0,0,1.64.24,1.61,1.61,0,0,0,1-.22.69.69,0,0,0,.3-.58.64.64,0,0,0-.12-.38,1.72,1.72,0,0,0-.39-.34c-.18-.11-.66-.34-1.43-.68a6.81,6.81,0,0,1-1.57-.93,2.68,2.68,0,0,1-.77-1,3.38,3.38,0,0,1-.26-1.37,2.74,2.74,0,0,1,1.08-2.31,4.75,4.75,0,0,1,3-.83,8.33,8.33,0,0,1,3.39.77L434.21,18a6.39,6.39,0,0,0-2.59-.69,1.29,1.29,0,0,0-.82.2.59.59,0,0,0-.26.49.71.71,0,0,0,.33.56,12.3,12.3,0,0,0,1.77.91,4.82,4.82,0,0,1,1.92,1.34A2.87,2.87,0,0,1,435.1,22.61Z"/><path class="cls-4" d="M446.77,20.5a5.8,5.8,0,0,1-1.32,4.11,6,6,0,0,1-7.75,0,5.79,5.79,0,0,1-1.34-4.12,5.67,5.67,0,0,1,1.34-4.08,6.06,6.06,0,0,1,7.76,0A5.77,5.77,0,0,1,446.77,20.5Zm-7.36,0c0,2.07.72,3.1,2.16,3.1a1.87,1.87,0,0,0,1.63-.75,4.19,4.19,0,0,0,.53-2.35,4.15,4.15,0,0,0-.54-2.37,1.85,1.85,0,0,0-1.61-.77C440.13,17.36,439.41,18.41,439.41,20.5Z"/><path class="cls-4" d="M451.56,25.86h-2.85V15.16H455v2.32h-3.48v2h3.21v2.32h-3.21Z"/><path class="cls-4" d="M461.52,25.86h-2.89V17.52H456V15.16h8.12v2.36h-2.61Z"/><path class="cls-4" d="M477.22,25.86H473.8l-1-4.66c0-.2-.13-.58-.23-1.17s-.19-1.06-.24-1.45c0,.31-.1.71-.19,1.18s-.17.9-.26,1.3-.44,2-1.06,4.8h-3.42l-2.65-10.7h2.79l1.16,5.37c.26,1.18.45,2.13.54,2.83.07-.5.18-1.17.34-2s.32-1.56.46-2.12l1-4.05h2.68l.91,4.05q.24,1,.48,2.25c.16.85.27,1.48.32,1.9.06-.54.24-1.48.52-2.82l1.19-5.38h2.79Z"/><path class="cls-4" d="M487.81,25.86l-.53-2h-3.47l-.55,2h-3.17l3.49-10.75h3.86L491,25.86Zm-1.13-4.37-.46-1.76c-.1-.39-.24-.9-.39-1.52s-.25-1.06-.3-1.33c0,.25-.13.66-.26,1.23s-.42,1.7-.86,3.38Z"/><path class="cls-4" d="M495,22v3.89h-2.9V15.16h3.51q4.37,0,4.37,3.16a3.17,3.17,0,0,1-1.82,2.88l3.12,4.66H498L495.76,22Zm0-2.18h.54c1,0,1.51-.44,1.51-1.34,0-.73-.49-1.1-1.48-1.1H495Z"/><path class="cls-4" d="M508.64,25.86h-6.36V15.16h6.36v2.32h-3.46v1.68h3.21v2.33h-3.21v2h3.46Z"/><path class="cls-4" d="M368.23,38.28a5.49,5.49,0,0,1-1.48,4.13,5.64,5.64,0,0,1-4.15,1.45h-3.46V33.16h3.71a5.59,5.59,0,0,1,4,1.32A5,5,0,0,1,368.23,38.28Zm-3,.11a3.43,3.43,0,0,0-.59-2.19,2.14,2.14,0,0,0-1.76-.71H362v6h.65a2.32,2.32,0,0,0,1.93-.76A3.7,3.7,0,0,0,365.23,38.39Z"/><path class="cls-4" d="M376.51,43.86h-6.36V33.16h6.36v2.32H373v1.68h3.21v2.33H373v2h3.47Z"/><path class="cls-4" d="M384.39,33.16h3.24l-3.51,10.7h-3.4l-3.5-10.7h3.26l1.45,5.42a16,16,0,0,1,.5,2.52c0-.34.1-.77.21-1.28s.19-.91.27-1.21Z"/><path class="cls-4" d="M395.15,43.86h-6.36V33.16h6.36v2.32h-3.47v1.68h3.21v2.33h-3.21v2h3.47Z"/><path class="cls-4" d="M397,43.86V33.16h2.89v8.37H404v2.33Z"/><path class="cls-4" d="M415.77,38.5a5.8,5.8,0,0,1-1.32,4.11,6,6,0,0,1-7.75,0,5.74,5.74,0,0,1-1.34-4.12,5.71,5.71,0,0,1,1.33-4.08A5.11,5.11,0,0,1,410.58,33a5,5,0,0,1,3.87,1.4A5.77,5.77,0,0,1,415.77,38.5Zm-7.37,0c0,2.07.72,3.1,2.16,3.1a1.85,1.85,0,0,0,1.63-.75,4.11,4.11,0,0,0,.53-2.35,4.24,4.24,0,0,0-.53-2.37,1.85,1.85,0,0,0-1.61-.77C409.13,35.36,408.4,36.41,408.4,38.5Z"/><path class="cls-4" d="M425.48,36.56a3.59,3.59,0,0,1-1.06,2.77,4.25,4.25,0,0,1-3,1h-.81v3.55h-2.9V33.16h3.71a4.55,4.55,0,0,1,3,.88A3.16,3.16,0,0,1,425.48,36.56ZM420.6,38h.53a1.45,1.45,0,0,0,1-.36,1.33,1.33,0,0,0,.39-1c0-.73-.4-1.09-1.21-1.09h-.74Z"/><path class="cls-4" d="M431.85,43.86l-2.19-7.71h-.07c.1,1.32.16,2.34.16,3.06v4.65h-2.57V33.16H431l2.24,7.6h.06l2.19-7.6h3.86v10.7h-2.66V39.17c0-.24,0-.51,0-.81s0-1,.1-2.19h-.07l-2.16,7.69Z"/><path class="cls-4" d="M448,43.86h-6.36V33.16H448v2.32h-3.46v1.68h3.21v2.33h-3.21v2H448Z"/><path class="cls-4" d="M460.11,43.86h-3.79l-3.91-7.54h-.07c.09,1.19.14,2.09.14,2.72v4.82h-2.56V33.16h3.78l3.89,7.44h.05c-.07-1.08-.11-2-.11-2.6V33.16h2.58Z"/><path class="cls-4" d="M467.15,43.86h-2.89V35.52h-2.62V33.16h8.12v2.36h-2.61Z"/><path class="cls-4" d="M329.94,239.46a5.54,5.54,0,0,1-1.47,4.13,5.67,5.67,0,0,1-4.15,1.45h-3.47V234.33h3.71a5.59,5.59,0,0,1,4,1.32A5,5,0,0,1,329.94,239.46Zm-3,.1a3.44,3.44,0,0,0-.58-2.18,2.17,2.17,0,0,0-1.77-.71h-.84v6h.64a2.33,2.33,0,0,0,1.93-.77A3.7,3.7,0,0,0,326.94,239.56Z"/><path class="cls-4" d="M338.22,245h-6.36V234.33h6.36v2.32h-3.47v1.69H338v2.32h-3.21v2h3.47Z"/><path class="cls-4" d="M346.11,234.33h3.23L345.84,245h-3.41l-3.49-10.71h3.25l1.46,5.43a16.86,16.86,0,0,1,.49,2.52c0-.34.11-.77.21-1.28s.19-.92.27-1.21Z"/><path class="cls-4" d="M356.86,245H350.5V234.33h6.36v2.32h-3.47v1.69h3.21v2.32h-3.21v2h3.47Z"/><path class="cls-4" d="M358.73,245V234.33h2.9v8.37h4.12V245Z"/><path class="cls-4" d="M377.48,239.67a5.8,5.8,0,0,1-1.32,4.11,6,6,0,0,1-7.75,0,7,7,0,0,1,0-8.2,5.12,5.12,0,0,1,3.89-1.41,5.07,5.07,0,0,1,3.87,1.4A5.8,5.8,0,0,1,377.48,239.67Zm-7.37,0c0,2.07.73,3.11,2.17,3.11a1.83,1.83,0,0,0,1.62-.76,4.06,4.06,0,0,0,.54-2.35,4.15,4.15,0,0,0-.54-2.37,1.84,1.84,0,0,0-1.61-.76C370.84,236.54,370.11,237.58,370.11,239.67Z"/><path class="cls-4" d="M387.19,237.74a3.59,3.59,0,0,1-1.06,2.77,4.29,4.29,0,0,1-3,1h-.81V245h-2.89V234.33h3.7a4.53,4.53,0,0,1,3.05.89A3.16,3.16,0,0,1,387.19,237.74Zm-4.88,1.39h.53a1.4,1.4,0,0,0,1-.37,1.31,1.31,0,0,0,.39-1q0-1.08-1.2-1.08h-.75Z"/><path class="cls-4" d="M393.56,245l-2.19-7.71h-.07c.11,1.31.16,2.33.16,3.06V245h-2.57V234.33h3.86l2.23,7.61H395l2.19-7.61h3.86V245h-2.66v-4.69c0-.25,0-.52,0-.82s0-1,.1-2.19h-.07l-2.16,7.7Z"/><path class="cls-4" d="M409.75,245H403.4V234.33h6.35v2.32h-3.46v1.69h3.21v2.32h-3.21v2h3.46Z"/><path class="cls-4" d="M421.82,245H418l-3.91-7.54h-.07c.1,1.18.14,2.09.14,2.71V245h-2.56V234.33h3.78l3.89,7.44h.05c-.07-1.08-.1-1.94-.1-2.6v-4.84h2.57Z"/><path class="cls-4" d="M428.86,245H426V236.7h-2.61v-2.37h8.11v2.37h-2.61Z"/><path class="cls-4" d="M441.62,245h-2.89V236.7h-2.62v-2.37h8.12v2.37h-2.61Z"/><path class="cls-4" d="M452.12,245h-6.36V234.33h6.36v2.32h-3.47v1.69h3.21v2.32h-3.21v2h3.47Z"/><path class="cls-4" d="M460.56,245l-.53-2h-3.47l-.55,2h-3.18l3.5-10.75h3.86L463.73,245Zm-1.13-4.38L459,238.9c-.11-.39-.24-.89-.39-1.51s-.25-1.07-.3-1.34c0,.25-.13.66-.26,1.23s-.42,1.7-.86,3.38Z"/><path class="cls-4" d="M469.55,245l-2.19-7.71h-.07c.11,1.31.16,2.33.16,3.06V245h-2.57V234.33h3.86l2.23,7.61H471l2.19-7.61h3.86V245h-2.66v-4.69c0-.25,0-.52,0-.82s0-1,.1-2.19h-.07L472.3,245Z"/><path class="cls-4" d="M327.42,263l-.52-2h-3.48l-.55,2h-3.18l3.5-10.75h3.86L330.59,263Zm-1.13-4.38-.46-1.76c-.1-.39-.24-.89-.39-1.51s-.25-1.07-.3-1.34c-.05.25-.13.66-.26,1.23s-.42,1.7-.86,3.38Z"/><path class="cls-4" d="M340.85,252.33v6.45a4.33,4.33,0,0,1-1.19,3.25,5.64,5.64,0,0,1-6.8,0,4.26,4.26,0,0,1-1.17-3.23v-6.51h2.9v6.29a2.57,2.57,0,0,0,.43,1.65,1.53,1.53,0,0,0,1.25.51,1.55,1.55,0,0,0,1.29-.51,2.79,2.79,0,0,0,.39-1.67v-6.27Z"/><path class="cls-4" d="M347.4,256.77H352v5.77a12.75,12.75,0,0,1-4.14.65,5,5,0,0,1-3.83-1.44,5.75,5.75,0,0,1-1.35-4.09,5.37,5.37,0,0,1,1.48-4,5.71,5.71,0,0,1,4.15-1.44,9,9,0,0,1,3.47.67l-.92,2.27a5.67,5.67,0,0,0-2.54-.57,2.42,2.42,0,0,0-2,.83,3.56,3.56,0,0,0-.69,2.35,3.61,3.61,0,0,0,.63,2.29,2.16,2.16,0,0,0,1.8.79,4.93,4.93,0,0,0,1.19-.13V259H347.4Z"/><path class="cls-4" d="M358.86,263l-2.18-7.71h-.07q.15,2,.15,3.06V263H354.2V252.33h3.85l2.24,7.61h0l2.19-7.61h3.86V263h-2.65v-4.69c0-.25,0-.52,0-.82s0-1,.1-2.19h-.07l-2.16,7.7Z"/><path class="cls-4" d="M375.06,263H368.7V252.33h6.36v2.32h-3.47v1.69h3.21v2.32h-3.21v2h3.47Z"/><path class="cls-4" d="M387.13,263h-3.79l-3.92-7.54h-.06c.09,1.18.14,2.09.14,2.71V263h-2.57V252.33h3.78l3.9,7.44h0c-.06-1.08-.1-1.94-.1-2.6v-4.84h2.58Z"/><path class="cls-4" d="M394.17,263h-2.89V254.7h-2.62v-2.37h8.12v2.37h-2.61Z"/><path class="cls-4" d="M404.88,263l-.53-2h-3.48l-.54,2h-3.18l3.49-10.75h3.86L408,263Zm-1.13-4.38-.46-1.76c-.11-.39-.24-.89-.39-1.51s-.26-1.07-.31-1.34c0,.25-.13.66-.26,1.23s-.42,1.7-.86,3.38Z"/><path class="cls-4" d="M413.92,263H411V254.7h-2.62v-2.37h8.12v2.37h-2.61Z"/><path class="cls-4" d="M418.06,263V252.33H421V263Z"/><path class="cls-4" d="M433.3,257.67a5.8,5.8,0,0,1-1.32,4.11,6,6,0,0,1-7.75,0,7,7,0,0,1,0-8.2,6.06,6.06,0,0,1,7.76,0A5.8,5.8,0,0,1,433.3,257.67Zm-7.37,0c0,2.07.72,3.11,2.16,3.11a1.83,1.83,0,0,0,1.63-.76,4.06,4.06,0,0,0,.53-2.35,4.24,4.24,0,0,0-.53-2.37,1.84,1.84,0,0,0-1.61-.76C426.66,254.54,425.93,255.58,425.93,257.67Z"/><path class="cls-4" d="M445.43,263h-3.79l-3.91-7.54h-.07c.09,1.18.14,2.09.14,2.71V263h-2.57V252.33H439l3.9,7.44h0c-.06-1.08-.1-1.94-.1-2.6v-4.84h2.58Z"/><path class="cls-4" d="M8.16,48.17a3.12,3.12,0,0,1-.51,1.77,3.21,3.21,0,0,1-1.45,1.2A5.36,5.36,0,0,1,4,51.57a9,9,0,0,1-1.79-.15A6.45,6.45,0,0,1,.66,50.9V48.32A8.73,8.73,0,0,0,2.38,49,6.37,6.37,0,0,0,4,49.22,1.61,1.61,0,0,0,5,49a.69.69,0,0,0,.3-.58A.62.62,0,0,0,5.15,48a1.72,1.72,0,0,0-.39-.34c-.18-.11-.66-.34-1.43-.68a6.81,6.81,0,0,1-1.57-.93,2.76,2.76,0,0,1-.77-1A3.42,3.42,0,0,1,.73,43.7a2.74,2.74,0,0,1,1.08-2.31,4.75,4.75,0,0,1,3-.83,8.33,8.33,0,0,1,3.39.77l-.89,2.24a6.39,6.39,0,0,0-2.59-.69,1.36,1.36,0,0,0-.82.19.63.63,0,0,0-.26.5.71.71,0,0,0,.33.56A12.3,12.3,0,0,0,5.7,45a4.92,4.92,0,0,1,1.92,1.33A2.92,2.92,0,0,1,8.16,48.17Z"/><path class="cls-4" d="M19.83,46.06a5.76,5.76,0,0,1-1.32,4.1,5.09,5.09,0,0,1-3.88,1.41,5.11,5.11,0,0,1-3.87-1.41A5.8,5.8,0,0,1,9.42,46,5.67,5.67,0,0,1,10.76,42a5.09,5.09,0,0,1,3.88-1.41A5.05,5.05,0,0,1,18.52,42,5.81,5.81,0,0,1,19.83,46.06Zm-7.36,0c0,2.07.72,3.1,2.16,3.1a1.87,1.87,0,0,0,1.63-.75,4.19,4.19,0,0,0,.53-2.35,4.15,4.15,0,0,0-.54-2.37,1.85,1.85,0,0,0-1.61-.77C13.19,42.92,12.47,44,12.47,46.06Z"/><path class="cls-4" d="M24.62,51.42H21.77V40.72H28.1V43H24.62v2h3.2V47.4h-3.2Z"/><path class="cls-4" d="M34.58,51.42h-2.9V43.08H29.07V40.72h8.12v2.36H34.58Z"/><path class="cls-4" d="M50.28,51.42H46.86l-1-4.66c-.05-.2-.13-.58-.24-1.17s-.18-1.06-.23-1.45c0,.31-.1.71-.19,1.18s-.17.9-.26,1.3-.44,2-1.06,4.8H40.44l-2.65-10.7h2.79l1.16,5.36c.26,1.19.45,2.14.54,2.84.07-.5.18-1.17.34-2s.32-1.56.46-2.12l1-4.05h2.68l.91,4.05q.24,1,.48,2.25c.16.84.27,1.48.32,1.9.06-.54.24-1.48.52-2.82l1.19-5.38h2.79Z"/><path class="cls-4" d="M60.87,51.42l-.53-2H56.87l-.55,2H53.14l3.5-10.75H60.5L64,51.42ZM59.74,47l-.46-1.75c-.11-.39-.24-.9-.39-1.52s-.25-1.06-.3-1.33c-.05.25-.13.66-.26,1.23s-.42,1.69-.86,3.37Z"/><path class="cls-4" d="M68.09,47.53v3.89h-2.9V40.72H68.7q4.36,0,4.37,3.16a3.17,3.17,0,0,1-1.82,2.88l3.12,4.66H71.09l-2.27-3.89Zm0-2.18h.54c1,0,1.51-.44,1.51-1.34,0-.74-.49-1.1-1.48-1.1h-.57Z"/><path class="cls-4" d="M81.7,51.42H75.34V40.72H81.7V43H78.24v1.68h3.21V47H78.24v2H81.7Z"/><path class="cls-4" d="M95.24,44.12a3.59,3.59,0,0,1-1,2.77,4.25,4.25,0,0,1-3,1h-.81v3.55h-2.9V40.72h3.71a4.55,4.55,0,0,1,3,.88A3.18,3.18,0,0,1,95.24,44.12Zm-4.87,1.39h.52a1.46,1.46,0,0,0,1-.36,1.32,1.32,0,0,0,.38-1c0-.73-.4-1.09-1.2-1.09h-.74Z"/><path class="cls-4" d="M99.84,47.53v3.89H97V40.72h3.51q4.37,0,4.36,3.16A3.16,3.16,0,0,1,103,46.76l3.12,4.66h-3.28l-2.27-3.89Zm0-2.18h.55c1,0,1.51-.44,1.51-1.34,0-.74-.49-1.1-1.48-1.1h-.58Z"/><path class="cls-4" d="M117.12,46.06a5.76,5.76,0,0,1-1.32,4.1,6,6,0,0,1-7.75,0A5.76,5.76,0,0,1,106.71,46,5.71,5.71,0,0,1,108,42a5.11,5.11,0,0,1,3.89-1.41A5,5,0,0,1,115.8,42,5.77,5.77,0,0,1,117.12,46.06Zm-7.37,0c0,2.07.72,3.1,2.16,3.1a1.85,1.85,0,0,0,1.63-.75,4.11,4.11,0,0,0,.53-2.35,4.16,4.16,0,0,0-.53-2.37,1.85,1.85,0,0,0-1.61-.77C110.48,42.92,109.75,44,109.75,46.06Z"/><path class="cls-4" d="M128.14,45.84A5.53,5.53,0,0,1,126.67,50a5.67,5.67,0,0,1-4.15,1.45h-3.46V40.72h3.7a5.62,5.62,0,0,1,4,1.31A5,5,0,0,1,128.14,45.84Zm-3,.11a3.41,3.41,0,0,0-.58-2.19,2.17,2.17,0,0,0-1.77-.71H122v6h.64a2.34,2.34,0,0,0,1.94-.76A3.7,3.7,0,0,0,125.14,46Z"/><path class="cls-4" d="M139.17,40.72v6.44A4.35,4.35,0,0,1,138,50.42a4.74,4.74,0,0,1-3.43,1.15,4.68,4.68,0,0,1-3.37-1.12A4.26,4.26,0,0,1,130,47.23V40.72h2.91V47a2.53,2.53,0,0,0,.43,1.65,1.53,1.53,0,0,0,1.25.51,1.55,1.55,0,0,0,1.29-.51,2.76,2.76,0,0,0,.39-1.66V40.72Z"/><path class="cls-4" d="M146.18,42.94a1.86,1.86,0,0,0-1.61.84,4.14,4.14,0,0,0-.58,2.33c0,2.06.79,3.1,2.36,3.1a4.83,4.83,0,0,0,1.37-.2,12,12,0,0,0,1.34-.48V51a7.48,7.48,0,0,1-3,.59,4.79,4.79,0,0,1-3.72-1.41A5.79,5.79,0,0,1,141,46.1a6.44,6.44,0,0,1,.63-2.92,4.45,4.45,0,0,1,1.8-1.94,5.43,5.43,0,0,1,2.76-.68,7.51,7.51,0,0,1,3.32.76l-.88,2.27a10.37,10.37,0,0,0-1.19-.46A4.09,4.09,0,0,0,146.18,42.94Z"/><path class="cls-4" d="M155.87,51.42H153V43.08h-2.61V40.72h8.11v2.36h-2.61Z"/><path class="cls-4" d="M57,63.84A5.53,5.53,0,0,1,55.48,68a5.67,5.67,0,0,1-4.15,1.45H47.86V58.72h3.71a5.62,5.62,0,0,1,4,1.31A5,5,0,0,1,57,63.84ZM54,64a3.41,3.41,0,0,0-.58-2.19,2.17,2.17,0,0,0-1.77-.71h-.84v6h.64a2.36,2.36,0,0,0,1.94-.76A3.7,3.7,0,0,0,54,64Z"/><path class="cls-4" d="M65.23,69.42H58.87V58.72h6.36V61H61.77v1.68H65V65h-3.2v2h3.46Z"/><path class="cls-4" d="M73.12,58.72h3.24l-3.51,10.7H69.44L66,58.72H69.2l1.46,5.42a15.62,15.62,0,0,1,.49,2.52c0-.34.11-.77.21-1.28s.19-.91.27-1.21Z"/><path class="cls-4" d="M83.87,69.42H77.51V58.72h6.36V61H80.41v1.68h3.2V65h-3.2v2h3.46Z"/><path class="cls-4" d="M85.74,69.42V58.72h2.9v8.37h4.12v2.33Z"/><path class="cls-4" d="M104.49,64.06a5.76,5.76,0,0,1-1.32,4.1,6,6,0,0,1-7.75,0A5.8,5.8,0,0,1,94.08,64,5.71,5.71,0,0,1,95.42,60a6.06,6.06,0,0,1,7.76,0A5.77,5.77,0,0,1,104.49,64.06Zm-7.36,0c0,2.07.72,3.1,2.16,3.1a1.87,1.87,0,0,0,1.63-.75,5.47,5.47,0,0,0,0-4.72,1.85,1.85,0,0,0-1.61-.77C97.85,60.92,97.13,62,97.13,64.06Z"/><path class="cls-4" d="M114.2,62.12a3.56,3.56,0,0,1-1.06,2.77,4.23,4.23,0,0,1-3,1h-.81v3.55h-2.89V58.72h3.7a4.53,4.53,0,0,1,3.05.88A3.16,3.16,0,0,1,114.2,62.12Zm-4.88,1.39h.53a1.48,1.48,0,0,0,1-.36,1.36,1.36,0,0,0,.38-1c0-.73-.4-1.09-1.2-1.09h-.75Z"/><path class="cls-4" d="M120.57,69.42l-2.19-7.71h-.06q.15,2,.15,3.06v4.65h-2.56V58.72h3.85l2.23,7.6h.06l2.19-7.6h3.86v10.7h-2.66V64.73c0-.24,0-.52,0-.81s0-1,.1-2.19h-.06l-2.16,7.69Z"/><path class="cls-4" d="M136.77,69.42h-6.36V58.72h6.36V61H133.3v1.68h3.21V65H133.3v2h3.47Z"/><path class="cls-4" d="M148.84,69.42H145l-3.91-7.54h-.07c.1,1.19.14,2.09.14,2.72v4.82h-2.56V58.72h3.78l3.9,7.44h0c-.07-1.08-.1-2-.1-2.6V58.72h2.58Z"/><path class="cls-4" d="M155.87,69.42H153V61.08h-2.61V58.72h8.11v2.36h-2.61Z"/><path class="cls-9" d="M435.6,150a45,45,0,1,1-45-45A45,45,0,0,1,435.6,150Z"/><path class="cls-7" d="M405.8,154.61l-.42-.53c1.74-1.39,2.57-2.88,2.46-4.44-.21-3.27-4.4-5.84-4.44-5.87l.35-.58c.19.11,4.53,2.79,4.77,6.41C408.64,151.39,407.72,153.07,405.8,154.61Z"/><path class="cls-24" d="M397.15,161.92c-.12-1.81-.2-4.44-.25-6.31,3.58-3.13,4.5-8.8,4.63-11,.2-3.29-.8-14.36-6.58-16.35s-19.43-1.15-16.94,17.44c.21,1.58,1.3,7,5.84,10.05a56.78,56.78,0,0,1,.07,7.3c-.2,1-.83,2-4.62,3-1.06.28-3.31,1.09-6.11,2.2,1.74,2.6,6.41,6.88,17.94,6,9.62-.71,15.17-4.47,18.1-7.45C401.65,164.33,397.32,164.71,397.15,161.92Z"/><path class="cls-7" d="M407,154.35a1.45,1.45,0,1,1-1.44-1.45A1.44,1.44,0,0,1,407,154.35Z"/><path class="cls-21" d="M382.23,132.38a4.7,4.7,0,0,0,5.88-.47c2.05,1.87,8.22,3.12,11.49-1a6.92,6.92,0,0,0,2.61.66c2.15,0,3.46-.92,4.21-3.37.61-2-2.06-8.48-10.3-9.18-7.12-.6-7.47,2.35-8.18,1.9-4.58-2.93-12.36,1-14.88,7.91-3.61,9.86,5.71,14.65,7.11,13.84C379.42,141.16,378.68,136.58,382.23,132.38Z"/><path class="cls-11" d="M392.13,179.26c11.35-.89,17.76-6.34,21.2-10.92-.51-.23-1-.44-1.53-.64-.89-.34-1.75-.64-2.57-.9-2.93,3-8.48,6.74-18.1,7.45-11.53.84-16.2-3.44-17.94-6-1.33.53-2.78,1.13-4.28,1.77C371.38,173.84,377.75,180.4,392.13,179.26Z"/><path class="cls-25" d="M392.73,140.53c.32,1,.64,2,.94,3s1.07,3.18-.44,3.25c-.41,0-.41.66,0,.64,1.71-.09,1.61-1.68,1.34-3a39,39,0,0,0-1.23-4.12c-.13-.39-.74-.23-.61.17Z"/><path class="cls-26" d="M393.72,150.77a4,4,0,0,1-2.78-.87c-.35-.38.09-.75.45-.51a3,3,0,0,0,4-.08c.36-.2.78.19.43.53A3.85,3.85,0,0,1,393.72,150.77Z"/><path class="cls-27" d="M387.54,140.94c0,.61-.35,1.11-.79,1.11s-.8-.5-.8-1.11.36-1.11.8-1.11S387.54,140.32,387.54,140.94Z"/><path class="cls-27" d="M398.37,140.54c0,.61-.35,1.11-.79,1.11s-.8-.5-.8-1.11.36-1.12.8-1.12S398.37,139.92,398.37,140.54Z"/><path class="cls-8" d="M376.18,136.65a7.55,7.55,0,0,1,.83-.05,7.89,7.89,0,0,1,.84.05h0c0-4.2-.31-7.42,2.29-11.29,2.41-3.6,8-4.43,8-4.43-.37-.92-1.56-.69-1.56-.69a10.89,10.89,0,0,0-8.24,4.1c-3.72,4.36-2.16,12.31-2.16,12.31Z"/><path class="cls-7" d="M383.14,142.73A6.13,6.13,0,1,1,377,136.6,6.13,6.13,0,0,1,383.14,142.73Z"/><path class="cls-11" d="M380,142.73a2.95,2.95,0,1,1-2.95-2.95A2.95,2.95,0,0,1,380,142.73Z"/><path class="cls-28" d="M397,159.17c-.05-1.24-.09-2.52-.11-3.56-6.42,5-13,.11-13,.11.07,1,.12,2.22.15,3.43C390.46,162.73,394.74,161,397,159.17Z"/><path class="cls-7" d="M401.53,144.58c0,.13,0,.27,0,.43,2-.2,3.64-2.37,3.64-5s-1.76-5-3.95-5a3.09,3.09,0,0,0-.95.15A29.7,29.7,0,0,1,401.53,144.58Z"/><path class="cls-29" d="M390.6,195a44.94,44.94,0,0,0,36.68-18.93,125.07,125.07,0,0,0-13.95-7.73c-3.44,4.58-9.85,10-21.2,10.92-14.38,1.14-20.75-5.42-23.22-9.28a100,100,0,0,0-13.72,7.79A44.9,44.9,0,0,0,390.6,195Z"/><path class="cls-30" d="M443.47,163.3a53.3,53.3,0,0,1-97.31,20.61"/><g class="cls-31"><path class="cls-11" d="M202.35,83.47a55,55,0,1,0,55-55A55,55,0,0,0,202.35,83.47Z"/><path class="cls-12" d="M247.26,150.15c-15.23-20.58-22.15-44.61-24.08-52.31h0a214.33,214.33,0,0,1,24.14-8.12l6.93,6.94,6.47-6.75c4.57.49,12.22,3.13,20.07,6.27l-12.52,51.15a59.68,59.68,0,0,1-14.69,2.76,60.7,60.7,0,0,1-6.32.06Z"/><path class="cls-32" d="M241.47,62.29s-2-6.69,1.38-11.33h0c3.19-2.05,6.08-.23,12.93,1.79a19.46,19.46,0,0,0,8,.55,15,15,0,0,1,1.51,5.22c1.46,12.6-.05,19.51-5.26,20.37l.74,11-6.47,6.75-6.93-6.94S247.43,76.25,247,75s-1.82-4.7-2.47-5.12c0,0-1.26.72-3.73-.53C238.86,68.42,234.11,61.38,241.47,62.29Z"/><path class="cls-14" d="M280.79,96.18c11.07,4.42,22.52,9.84,26.3,11.65a59.81,59.81,0,0,1-38.82,39.5Z"/><path class="cls-21" d="M234.77,51.42c.61-7.06,6.21-7.11,6.21-7.11.29-1.53,1.8-4.84,8.74-5.21s11.8,6.39,14,8.64A31.08,31.08,0,0,0,269,52a20.73,20.73,0,0,1-5.27,1.35,19.46,19.46,0,0,1-8-.55c-6.85-2-9.74-3.84-12.93-1.79h0c-3.4,4.64-1.38,11.33-1.38,11.33S234.15,58.49,234.77,51.42Z"/><path class="cls-33" d="M257.61,60.1c.51,1.77,1,3.56,1.37,5.36a7.76,7.76,0,0,1,.33,2.53c-.12.9-1.27,1.21-2,1.16-.56,0-.62-.9-.06-.87.92.06,1.29-.27,1.19-1.12a23.84,23.84,0,0,0-.56-2.77c-.32-1.34-.68-2.68-1.06-4-.16-.54.66-.82.82-.29Z"/><path class="cls-33" d="M260.9,71.24c-2.1,2.15-5.32,2-7.75.54-.48-.28-.09-1.06.39-.77,2.07,1.2,4.89,1.52,6.71-.34.39-.4,1.05.17.65.57Z"/><path class="cls-34" d="M248.61,60.44a1.09,1.09,0,0,0,1.22.9,1.08,1.08,0,0,0,.66-1.36,1,1,0,1,0-1.88.46Z"/><path class="cls-34" d="M260.55,59.35a1,1,0,1,0,.92-1.2A1.08,1.08,0,0,0,260.55,59.35Z"/><path class="cls-33" d="M260,78.89l.19,3c-7.84.7-8-5.06-8-5.06C255.13,80.07,260,78.89,260,78.89Z"/><path class="cls-14" d="M255.85,153.42a66,66,0,0,1-58.24-41.3c9.78-6.83,21.38-12.34,31.64-16.46C231.39,104.16,239,130.69,255.85,153.42Z"/><path class="cls-5" d="M249.6,102.32,238.28,92.4c5.51-1.77,9-2.68,9-2.68l6.93,6.94Z"/><path class="cls-5" d="M258.26,102.84l-4-6.18,6.47-6.75A47.77,47.77,0,0,1,269.41,92Z"/></g><g class="cls-35"><path class="cls-11" d="M307.35,230a50,50,0,1,1-50-50A50,50,0,0,1,307.35,230Z"/><path class="cls-17" d="M285.76,236.45,296,235l-.14-1.43c2.84-3.1,1.94-7.8,1.94-7.8.39-.1,1.59-2.74,1.66-4.07s-.78-3.32-2.06-3.7-2.67,1-2.67,1c-1.54-2.05-3.55-.15-3.55-.15.29-4.27-.39-7.45-1.42-8.22s-2.2-.16-3,3.28-1,6.67-1.17,7-1.13-1.4-2.06-2.52-3-1.77-3.24.67,4.29,13.49,4.9,15.22C285.41,235.19,285.62,235.9,285.76,236.45Z"/><path class="cls-13" d="M248.35,197a9.19,9.19,0,0,0-9.89,3.11c-3.68,4.24-2.22,6.81-3.38,8.94-1.63,3-5.42,3.25-7.72,8.88-1.93,4.73,1.91,6.49.4,9.95-1.35,3.11-8,5.07-6.79,7.12s17.69,6.58,32.84,5.65,26.32-6.14,25.95-8.07-6.09-.74-6.15-8.13-1.64-9-6.3-12.69-.67-7.59-6.09-12.87C256,193.82,249.59,196,248.35,197Z"/><path class="cls-17" d="M260.2,211.48s-5.9-3.16-7.64-7.66a16.49,16.49,0,0,1-11.85,7.54s-3.23.37-2.55,3.41,3.17,2.67,3.17,2.67.87,6.83,6.2,8.91c.06,2,.06,6-.74,6.15,0,0,1,2.05,4.35,1.77s4.27-1.9,4.27-1.9c-.29-.09-.47-.17-.52-.28-.33-.65-.55-4-.65-5.93,4.76-2.35,6-9.21,6-9.21s3.29.06,3.23-4S260.2,210.93,260.2,211.48Z"/><path class="cls-36" d="M250,212.8c-.25,1.27-.48,2.54-.66,3.81a6,6,0,0,0-.11,1.79c.11.63.85.8,1.32.73s.36-.66,0-.61c-.57.08-.82-.14-.79-.73s.15-1.32.25-2c.15-1,.33-1.91.52-2.85.07-.39-.45-.55-.53-.17Z"/><path class="cls-37" d="M246.11,213.44c0,.63-.32,1.15-.72,1.15s-.71-.52-.71-1.15.32-1.15.71-1.15S246.11,212.81,246.11,213.44Z"/><path class="cls-37" d="M255.61,213.44c0,.63-.32,1.15-.72,1.15s-.71-.52-.71-1.15.32-1.15.71-1.15S255.61,212.81,255.61,213.44Z"/><path class="cls-38" d="M248.26,221.38a4.14,4.14,0,0,0,4.23,0c.27-.15.15-.75-.13-.6a3.81,3.81,0,0,1-3.87,0c-.27-.17-.5.37-.23.54Z"/><path class="cls-39" d="M247.55,228a6.47,6.47,0,0,0,6.79-.28c0-.58-.07-1.13-.1-1.6a7.57,7.57,0,0,1-3.79.78,9,9,0,0,1-2.92-.59C247.54,226.83,247.55,227.42,247.55,228Z"/><path class="cls-5" d="M252.88,250.8c18.41-.61,27.26-2.23,31.38-3.32A40.68,40.68,0,0,0,279,242.4a47.14,47.14,0,0,0-21.1-9.53s-1.45,3.21-6.5,3.37c-5.21.16-6.87-3.44-6.87-3.44-5.2.82-17.93,3.67-26.69,13C221.26,247.48,232,251.49,252.88,250.8Z"/><path class="cls-12" d="M288.18,252.59a49,49,0,0,0-3.92-5.11c-4.12,1.09-13,2.71-31.38,3.32-20.91.69-31.62-3.32-35.09-5a32.53,32.53,0,0,0-4.33,5.81C243.08,262.78,277.53,255.37,288.18,252.59Z"/><path class="cls-5" d="M291.25,266.74c-8.35,3.92-22.51,9.3-36.91,9a118.58,118.58,0,0,1-21.81-2.29,50,50,0,0,0,58.72-6.68Z"/><path class="cls-5" d="M291.5,258.17a59.55,59.55,0,0,0-3.32-5.58c-10.65,2.78-45.1,10.19-74.72-1-.22.38-.43.76-.63,1.15a50,50,0,0,0,6.32,9.48C231.7,266.07,261.17,272.17,291.5,258.17Z"/><path class="cls-12" d="M291.25,266.74c1-.93,2-1.89,2.9-2.9-.68-1.64-1.56-3.59-2.65-5.67-30.33,14-59.8,7.9-72.35,4.1a50.43,50.43,0,0,0,13.38,11.15,118.58,118.58,0,0,0,21.81,2.29C268.74,276,282.9,270.66,291.25,266.74Z"/><path class="cls-5" d="M285.14,273.32a49.88,49.88,0,0,0,15.11-15.09l-2-23.53-13.68,1.92Z"/><path class="cls-40" d="M255.41,232.37s-.89,1.62-4.27,1.9-4.35-1.77-4.35-1.77a2.18,2.18,0,0,0-2.31.3s1.66,3.6,6.87,3.44c5-.16,6.5-3.37,6.5-3.37A1.77,1.77,0,0,0,255.41,232.37Z"/><path class="cls-41" d="M292.58,226.09a3.13,3.13,0,0,1-2-2.13,6.2,6.2,0,0,1,.07-4.25l.34.15a5.91,5.91,0,0,0-.06,4,2.73,2.73,0,0,0,1.83,1.92,1.9,1.9,0,0,0,1.78-.78l.22-.24.1.3a1.68,1.68,0,0,0,.84.91,1.78,1.78,0,0,0,1.44-.13l.15.33a2.05,2.05,0,0,1-1.74.14,1.94,1.94,0,0,1-.92-.86,2.22,2.22,0,0,1-1.94.7Z"/><rect class="cls-41" x="292.17" y="222.29" width="5.23" height="0.37" transform="translate(60.83 508.24) rotate(-87.73)"/></g><circle class="cls-8" cx="303.29" cy="176.57" r="30"/><path class="cls-7" d="M320.72,161.42a2.92,2.92,0,0,0-2-.85h0a2.87,2.87,0,0,0-2,.81l-16.27,15.55a6.82,6.82,0,0,1,4.2,3.19,7.36,7.36,0,0,1,.71,1.57l15.48-16.19a2.85,2.85,0,0,0,.81-2A2.91,2.91,0,0,0,320.72,161.42Z"/><path class="cls-7" d="M297,180.66h-.24a6.67,6.67,0,0,0-3.85,1.27c-1.34,1-1.87,2.35-2.85,3.61a9.25,9.25,0,0,1-5,2.88c1.09,2.89,5.16,4.08,7.83,4.14h.29c3,0,6.59-1.13,8-4.1C302.76,185.21,300.79,180.82,297,180.66Z"/><path class="cls-30" d="M303.06,30.59A69.87,69.87,0,0,0,188.88,79.14"/><circle class="cls-8" cx="303.29" cy="41.49" r="30"/><path class="cls-7" d="M294.87,40.15a10.08,10.08,0,0,0-1.26,2.2.7.7,0,0,0,0,.79L301.48,51a.75.75,0,0,0,.94.16,17.43,17.43,0,0,0,2.36-1.26,11,11,0,0,1-.31,6.77c4.56-1.74,6.77-6.46,6-11.34,4.72-4.87,8-11.64,8.18-18.41a.74.74,0,0,0-.78-.79c-6.77.16-13.54,3.47-18.42,8.35-5-1-9.6,1.41-11.33,6A11,11,0,0,1,294.87,40.15ZM305.41,35a3.11,3.11,0,1,1,0,4.4A3,3,0,0,1,305.41,35Z"/><path class="cls-7" d="M287.1,50.49a1.55,1.55,0,0,0,2.21,0l3.3-3.31a1.56,1.56,0,0,0-2.2-2.2l-3.31,3.3A1.55,1.55,0,0,0,287.1,50.49Z"/><path class="cls-7" d="M294.29,57.67a1.53,1.53,0,0,0,2.21,0l3.3-3.3a1.56,1.56,0,1,0-2.2-2.21l-3.31,3.31A1.52,1.52,0,0,0,294.29,57.67Z"/><path class="cls-7" d="M289.52,55.42a1.52,1.52,0,0,0,2.2,0l4.57-4.57a1.56,1.56,0,0,0-2.21-2.2l-4.56,4.56A1.53,1.53,0,0,0,289.52,55.42Z"/><path class="cls-9" d="M160.12,150a55,55,0,1,1-55-55A55,55,0,0,1,160.12,150Z"/><path class="cls-29" d="M103.76,106.18c-2.17.39-13.63.24-16.64,17.67s-6.07,24.49-17.2,28.49-11.7,13-11.36,16.48,4.49,11.13,18.8,8,44.28,7.15,56.09,1.47,8.29-14.31,1.71-21.12a41.65,41.65,0,0,1-11.45-22.59c-1.59-8.57-.34-9.85.21-14.81.63-5.67-3.15-10.49-8.4-9.65A12.57,12.57,0,0,0,103.76,106.18Z"/><path class="cls-42" d="M123.1,156c-4.89-1-6.39-2-6.29-4.46,0-1.19,0-3.24-.1-5,9.39-1.5,6.91-18,6.86-19.19s-1.65-13.58-11.41-12.36c-2.52.31-11.44,2-11,13.78,0,0-4-1.54-4.26,2.44s4.09,6.41,6.53,5.56a16.32,16.32,0,0,0,4.45,7.24,58.1,58.1,0,0,1,.26,7.06c-.23,1.26-.51,2.64-3.86,4.06-.79.34-2.58,1.17-5.46,2.2,1.67,1.36,6,4.13,13.79,4.62a24.1,24.1,0,0,0,15.7-4.63C126.3,156.73,124.51,156.26,123.1,156Z"/><path class="cls-43" d="M118.48,130.38c-.54-1.54-.82-2.38-1.43-3.9-.17-.44-1.08-.24-.9.21,0,0,.56,1.4,1,2.48.27.73.53,1.47.77,2.2s.64,1.65-.79,1.57c-.57,0-.64.7-.07.73C119.74,133.83,119,131.76,118.48,130.38Z"/><path class="cls-44" d="M113.37,137.09c1.9,1.28,4.4,1.39,5.76-.67.32-.48-.41-1-.72-.5-1.1,1.65-3,1.45-4.53.44a.45.45,0,0,0-.51.73Z"/><path class="cls-27" d="M111.51,127.85a1.24,1.24,0,0,1-.8,1.54c-.57.09-1.13-.45-1.26-1.2a1.26,1.26,0,0,1,.81-1.54C110.83,126.55,111.39,127.09,111.51,127.85Z"/><path class="cls-27" d="M121.4,126.39c.12.67-.17,1.28-.66,1.37s-1-.39-1.08-1.06.17-1.28.65-1.37S121.29,125.72,121.4,126.39Z"/><path class="cls-45" d="M116.71,146.55a10.39,10.39,0,0,1-7-1.26s1.33,3.55,7.13,3.82C116.78,148.26,116.75,147.37,116.71,146.55Z"/><path class="cls-19" d="M154.82,173.59c-13-13.92-19.68-14.27-26.47-16.26a24.1,24.1,0,0,1-15.7,4.63c-7.82-.49-12.12-3.26-13.79-4.62a70.53,70.53,0,0,0-35.07,28.94,55,55,0,0,0,91-12.69Z"/><path class="cls-11" d="M135.61,159.43c-2.58-.92-4.91-1.41-7.26-2.1a24.1,24.1,0,0,1-15.7,4.63c-7.82-.49-12.12-3.26-13.79-4.62a64,64,0,0,0-9.27,4.28,6.74,6.74,0,0,0,8.13,5.43,9.94,9.94,0,0,0,3.26-1.14,8.9,8.9,0,0,0,2.23,4.21c4.21,4.73,10.52,2.41,13-3.69,5.9,4.27,13.13,2.43,13.61-4.29a11.77,11.77,0,0,0,0-1.89A8,8,0,0,0,135.61,159.43Z"/><circle class="cls-8" cx="160.77" cy="109.42" r="30"/><path class="cls-46" d="M174.41,97.8h-26A2.18,2.18,0,0,0,146.2,100v10.76"/><path class="cls-46" d="M176.58,111.5H146.25v11.32a2.17,2.17,0,0,0,2.17,2.17h11.23"/><circle class="cls-7" cx="146.25" cy="111.5" r="5.06"/><rect class="cls-7" x="155.73" y="93.85" width="7.96" height="7.96"/><rect class="cls-7" x="155.73" y="107.5" width="7.96" height="7.96"/><rect class="cls-7" x="155.7" y="121.04" width="7.96" height="7.96" transform="translate(-41.63 149.52) rotate(-45)"/><rect class="cls-7" x="168.75" y="93.84" width="7.96" height="7.96" transform="translate(-18.58 150.79) rotate(-45)"/><circle class="cls-7" cx="172.71" cy="111.5" r="5.11"/><circle class="cls-8" cx="440.36" cy="109.42" r="30"/><circle class="cls-1" cx="91.06" cy="-7.93" r="45.71"/><path class="cls-7" d="M457,106.16l-3.13-.37a14,14,0,0,0-1.38-3.36l1.94-2.47a1,1,0,0,0-.08-1.31l-3.22-3.22a1,1,0,0,0-1.31-.08l-2.47,1.94A14,14,0,0,0,444,95.91l-.37-3.12a1,1,0,0,0-1-.87h-4.55a1,1,0,0,0-1,.87l-.38,3.12a13.93,13.93,0,0,0-3.35,1.39l-2.47-2a1,1,0,0,0-1.31.08l-3.22,3.22a1,1,0,0,0-.08,1.31l1.95,2.47a13.61,13.61,0,0,0-1.39,3.36l-3.12.37a1,1,0,0,0-.87,1v4.56a1,1,0,0,0,.87,1l3.12.37a13.77,13.77,0,0,0,1.39,3.36l-1.94,2.47a1,1,0,0,0,.08,1.31l3.21,3.22a1,1,0,0,0,1.31.08l2.47-1.95a14,14,0,0,0,3.36,1.39l.37,3.12a1,1,0,0,0,1,.87h4.55a1,1,0,0,0,1-.87l.38-3.12a13.93,13.93,0,0,0,3.35-1.39l2.48,1.94a1,1,0,0,0,1.3-.08l3.22-3.22a1,1,0,0,0,.08-1.31l-1.94-2.47a13.9,13.9,0,0,0,1.38-3.35l3.13-.38a1,1,0,0,0,.87-1v-4.55A1,1,0,0,0,457,106.16Z"/><path class="cls-8" d="M445.82,102.86l-7.28,7.29-3.65-3.65L432,109.42l6.56,6.56,10.2-10.21Z"/><path class="cls-30" d="M200,256.63a63.23,63.23,0,0,1,57.33-89.83"/><path class="cls-30" d="M160.68,187.46A67,67,0,0,1,38.12,150"/></svg>